<svg width="400" height="100" viewBox="0 0 400 100" fill="none" xmlns="http://www.w3.org/2000/svg">
  <defs>
    <linearGradient id="cell-l" x1="16" y1="16" x2="68" y2="84" gradientUnits="userSpaceOnUse">
      <stop offset="0%" stop-color="#38BDF8"/>
      <stop offset="100%" stop-color="#1D4ED8"/>
    </linearGradient>
    <linearGradient id="cell-r" x1="84" y1="16" x2="32" y2="84" gradientUnits="userSpaceOnUse">
      <stop offset="0%" stop-color="#059669"/>
      <stop offset="100%" stop-color="#10B981"/>
    </linearGradient>
  </defs>
  <style>
    @import url('https://fonts.googleapis.com/css2?family=Ubuntu:wght@500&amp;display=swap');
    .txt { font-family: 'Ubuntu', -apple-system, sans-serif; font-weight: 500; font-size: 48px; fill: #F8FAFC; letter-spacing: -0.01em; }
  </style>
  <g transform="translate(18, 18)">
    <path d="M32 10.24 C17.92 10.24, 10.24 20.48, 10.24 32 C10.24 43.52, 17.92 53.76, 32 53.76 C24.32 46.08, 21.76 37.12, 21.76 32 C21.76 26.88, 24.32 17.92, 32 10.24 Z" fill="url(#cell-l)"/>
    <path d="M32 10.24 C46.08 10.24, 53.76 20.48, 53.76 32 C53.76 43.52, 46.08 53.76, 32 53.76 C39.68 46.08, 42.24 37.12, 42.24 32 C42.24 26.88, 39.68 17.92, 32 10.24 Z" fill="url(#cell-r)"/>
    <circle cx="32" cy="32" r="5.12" fill="#10B981"/>
  </g>
  <text x="106" y="65" class="txt">tovelu</text>
</svg>